<?xml version="1.0" encoding="UTF-8" standalone="no"?>
<!-- Created with Inkscape (http://www.inkscape.org/) -->

<svg
   width="213.08453mm"
   height="212.5614mm"
   viewBox="0 0 213.08453 212.5614"
   version="1.1"
   id="svg1"
   xml:space="preserve"
   xmlns="http://www.w3.org/2000/svg"
   xmlns:svg="http://www.w3.org/2000/svg"><defs
     id="defs1" /><g
     id="layer1"
     transform="translate(-232.87787,-45.897231)"><path
       id="rect25"
       style="display:inline;fill:#fcd973;stroke-width:5;stroke-linecap:round;paint-order:fill markers stroke"
       d="M 288.30745,49.647232 H 401.056 c 22.80066,0 41.15642,18.355761 41.15642,41.156414 V 213.5522 c 0,22.80066 -18.35576,41.15642 -41.15642,41.15642 H 288.30745 c -22.80066,0 -41.15642,-18.35576 -41.15642,-41.15642 V 90.803646 c 0,-22.800653 18.35576,-41.156414 41.15642,-41.156414 z" /><g
       id="g7"
       style="display:inline"
       transform="translate(96.221124,127.57407)"><rect
         style="fill:#ecb351;fill-opacity:1;stroke:none;stroke-width:4.17845;stroke-linecap:round;stroke-dasharray:none;stroke-opacity:1;paint-order:fill markers stroke"
         id="rect20"
         width="7.5"
         height="205"
         x="189.50301"
         y="-77.896149"
         ry="3.9015503" /><rect
         style="display:inline;fill:#ecb351;fill-opacity:1;stroke:none;stroke-width:3.73733;stroke-linecap:round;stroke-dasharray:none;stroke-opacity:1;paint-order:fill markers stroke"
         id="rect20-2"
         width="7.5"
         height="164"
         x="20.853851"
         y="-345.828"
         ry="2.4117646"
         transform="rotate(90)" /><rect
         style="display:inline;fill:#ecb351;fill-opacity:1;stroke:none;stroke-width:3.73733;stroke-linecap:round;stroke-dasharray:none;stroke-opacity:1;paint-order:fill markers stroke"
         id="rect4"
         width="7.5"
         height="164"
         x="-10.89615"
         y="-345.828"
         ry="2.4117646"
         transform="rotate(90)" /><rect
         style="display:inline;fill:#ecb351;fill-opacity:1;stroke:none;stroke-width:3.73733;stroke-linecap:round;stroke-dasharray:none;stroke-opacity:1;paint-order:fill markers stroke"
         id="rect6"
         width="7.5"
         height="164"
         x="52.603855"
         y="-345.828"
         ry="2.4117646"
         transform="rotate(90)" /><rect
         style="display:inline;fill:#ecb351;fill-opacity:1;stroke:none;stroke-width:3.73733;stroke-linecap:round;stroke-dasharray:none;stroke-opacity:1;paint-order:fill markers stroke"
         id="rect5"
         width="7.5"
         height="164"
         x="-42.646152"
         y="-345.828"
         ry="2.4117646"
         transform="rotate(90)" /><rect
         style="display:inline;fill:#ecb351;fill-opacity:1;stroke:none;stroke-width:3.73733;stroke-linecap:round;stroke-dasharray:none;stroke-opacity:1;paint-order:fill markers stroke"
         id="rect7"
         width="7.5"
         height="164"
         x="84.353851"
         y="-345.828"
         ry="2.4117646"
         transform="rotate(90)" /></g><path
       id="rect31"
       style="display:inline;fill:none;stroke:#5b4c67;stroke-width:7.5;stroke-linecap:round;paint-order:fill markers stroke"
       d="M 288.30745,49.647232 H 401.056 c 22.80066,0 41.15642,18.355761 41.15642,41.156414 V 213.5522 c 0,22.80066 -18.35576,41.15642 -41.15642,41.15642 H 288.30745 c -22.80066,0 -41.15642,-18.35576 -41.15642,-41.15642 V 90.803646 c 0,-22.800653 18.35576,-41.156414 41.15642,-41.156414 z" /><g
       id="g31"
       style="stroke-width:7.5;stroke-dasharray:none"
       transform="translate(96.221124,127.57407)"><rect
         style="fill:#e68947;fill-opacity:1;stroke:#5b4c67;stroke-width:7.5;stroke-linecap:round;stroke-dasharray:none;stroke-opacity:1;paint-order:fill markers stroke"
         id="rect30"
         width="31.108496"
         height="14.108498"
         x="140.40675"
         y="-45.950397"
         ry="7.0542483" /><rect
         style="fill:#e68947;fill-opacity:1;stroke:#5b4c67;stroke-width:7.5;stroke-linecap:round;stroke-dasharray:none;stroke-opacity:1;paint-order:fill markers stroke"
         id="rect27"
         width="31.108496"
         height="14.108498"
         x="140.40675"
         y="38.71627"
         ry="7.0542483" /><rect
         style="fill:#e68947;fill-opacity:1;stroke:#5b4c67;stroke-width:7.5;stroke-linecap:round;stroke-dasharray:none;stroke-opacity:1;paint-order:fill markers stroke"
         id="rect28"
         width="31.108496"
         height="14.108498"
         x="140.40675"
         y="-3.6170642"
         ry="7.0542483" /><rect
         style="fill:#e68947;fill-opacity:1;stroke:#5b4c67;stroke-width:7.5;stroke-linecap:round;stroke-dasharray:none;stroke-opacity:1;paint-order:fill markers stroke"
         id="rect29"
         width="31.108496"
         height="14.108498"
         x="140.40675"
         y="81.049599"
         ry="7.0542483" /></g><path
       style="fill:#f8f3e3;fill-opacity:1;stroke:#5b4c67;stroke-width:7.5;stroke-linecap:round;stroke-linejoin:round;stroke-dasharray:none;stroke-opacity:1;paint-order:normal"
       d="m -124.60287,-161.27524 h 23.54154 a 13.229167,13.229167 45 0 1 13.22917,13.22917 v 73.541743 a 13.229167,13.229167 45 0 0 13.229167,13.229167 h 38.541786 a 13.229167,13.229167 45 0 1 13.229167,13.229167 l 0,23.541666 a 13.229167,13.229167 135 0 1 -13.229167,13.229167 h -88.541663 a 13.229167,13.229167 45 0 1 -13.22917,-13.229167 V -148.04607 a 13.229167,13.229167 135 0 1 13.22917,-13.22917 z"
       id="path4"
       transform="translate(440.38117,238.45312)" /></g></svg>
